<?xml version="1.0" encoding="UTF-8"?>
<!DOCTYPE svg PUBLIC "-//W3C//DTD SVG 1.1//EN" "http://www.w3.org/Graphics/SVG/1.1/DTD/svg11.dtd">
<svg xmlns="http://www.w3.org/2000/svg" version="1.1" width="559px" height="298px" style="shape-rendering:geometricPrecision; text-rendering:geometricPrecision; image-rendering:optimizeQuality; fill-rule:evenodd; clip-rule:evenodd" xmlns:xlink="http://www.w3.org/1999/xlink">
<g><path style="opacity:0.998" fill="#02a1e4" d="M -0.5,-0.5 C 173.5,-0.5 347.5,-0.5 521.5,-0.5C 521.5,11.8333 521.5,24.1667 521.5,36.5C 533.833,36.5 546.167,36.5 558.5,36.5C 558.5,37.5 558.5,38.5 558.5,39.5C 546.05,87.2985 533.883,135.298 522,183.5C 521.5,221.499 521.333,259.499 521.5,297.5C 347.5,297.5 173.5,297.5 -0.5,297.5C -0.5,198.167 -0.5,98.8333 -0.5,-0.5 Z"/></g>
<g><path style="opacity:1" fill="#fdfefe" d="M 383.5,68.5 C 401.261,66.6161 413.095,73.9494 419,90.5C 420.81,97.0491 421.643,103.716 421.5,110.5C 413.777,110.591 406.111,111.257 398.5,112.5C 399.195,105.474 398.028,98.8072 395,92.5C 389.929,88.3395 385.929,89.3395 383,95.5C 380.787,104.666 382.121,113.333 387,121.5C 395,133.5 403,145.5 411,157.5C 422.77,175.636 424.437,194.636 416,214.5C 411.956,221.774 405.79,225.941 397.5,227C 373.541,231.36 360.041,221.527 357,197.5C 356.501,192.511 356.334,187.511 356.5,182.5C 363.812,181.653 371.146,180.987 378.5,180.5C 378.538,187.265 379.371,193.931 381,200.5C 384.897,207.194 389.897,208.194 396,203.5C 400.539,191.266 398.872,179.933 391,169.5C 381.584,156.34 372.917,142.674 365,128.5C 357.706,113.123 357.706,97.7893 365,82.5C 369.49,75.5166 375.657,70.8499 383.5,68.5 Z"/></g>
<g><path style="opacity:1" fill="#fefefe" d="M 84.5,70.5 C 94.2634,69.8761 103.763,70.5427 113,72.5C 120.829,123.799 128.329,175.132 135.5,226.5C 128.167,226.5 120.833,226.5 113.5,226.5C 112.75,216.083 111.417,205.749 109.5,195.5C 102.197,194.503 94.8635,194.169 87.5,194.5C 86.0936,205.157 84.7603,215.824 83.5,226.5C 76.1667,226.5 68.8333,226.5 61.5,226.5C 69.3304,174.523 76.9971,122.523 84.5,70.5 Z"/></g>
<g><path style="opacity:1" fill="#fefffe" d="M 303.5,134.5 C 309.31,135.49 315.31,135.823 321.5,135.5C 321.5,113.833 321.5,92.1667 321.5,70.5C 328.833,70.5 336.167,70.5 343.5,70.5C 343.5,122.5 343.5,174.5 343.5,226.5C 336.167,226.5 328.833,226.5 321.5,226.5C 321.5,203.833 321.5,181.167 321.5,158.5C 315.5,158.5 309.5,158.5 303.5,158.5C 303.5,181.167 303.5,203.833 303.5,226.5C 295.833,226.5 288.167,226.5 280.5,226.5C 280.5,174.5 280.5,122.5 280.5,70.5C 288.167,70.5 295.833,70.5 303.5,70.5C 303.5,91.8333 303.5,113.167 303.5,134.5 Z"/></g>
<g><path style="opacity:1" fill="#fefffe" d="M 433.5,70.5 C 441.167,70.5 448.833,70.5 456.5,70.5C 456.5,122.5 456.5,174.5 456.5,226.5C 448.833,226.5 441.167,226.5 433.5,226.5C 433.5,174.5 433.5,122.5 433.5,70.5 Z"/></g>
<g><path style="opacity:1" fill="#fdfefe" d="M 236.5,108.5 C 258.333,108 268.666,118.667 267.5,140.5C 260.833,140.5 254.167,140.5 247.5,140.5C 248.298,135.285 246.964,130.785 243.5,127C 239.316,125.835 236.483,127.335 235,131.5C 233.669,138.249 234.669,144.582 238,150.5C 245.365,157.53 252.365,164.864 259,172.5C 269.166,186.824 270.166,201.824 262,217.5C 252.781,227.422 241.615,230.255 228.5,226C 220.507,222.674 215.341,216.841 213,208.5C 211.202,203.311 210.369,197.978 210.5,192.5C 217.167,192.5 223.833,192.5 230.5,192.5C 230.251,197.836 231.418,202.836 234,207.5C 239.683,212.162 244.017,211.162 247,204.5C 248.598,197.169 247.265,190.502 243,184.5C 234.264,176.434 226.264,167.767 219,158.5C 212.765,144.953 213.098,131.62 220,118.5C 224.457,113.162 229.957,109.829 236.5,108.5 Z"/></g>
<g><path style="opacity:1" fill="#fdfefe" d="M 144.5,110.5 C 151.5,110.5 158.5,110.5 165.5,110.5C 165.333,141.835 165.5,173.168 166,204.5C 170.343,208.673 174.01,208.006 177,202.5C 177.5,171.835 177.667,141.168 177.5,110.5C 184.833,110.5 192.167,110.5 199.5,110.5C 199.5,149.167 199.5,187.833 199.5,226.5C 192.167,226.5 184.833,226.5 177.5,226.5C 177.665,223.482 177.498,220.482 177,217.5C 172.529,222.992 166.863,226.325 160,227.5C 152.285,227.122 147.619,223.122 146,215.5C 144.527,180.549 144.027,145.549 144.5,110.5 Z"/></g>
<g><path style="opacity:1" fill="#1ba5e5" d="M 97.5,117.5 C 99.045,118.23 99.8784,119.563 100,121.5C 102.35,137.817 104.517,154.15 106.5,170.5C 101.5,170.5 96.5,170.5 91.5,170.5C 93.3123,152.813 95.3123,135.147 97.5,117.5 Z"/></g>
<g><path style="opacity:1" fill="#9dd5f4" d="M 321.5,70.5 C 321.5,92.1667 321.5,113.833 321.5,135.5C 315.31,135.823 309.31,135.49 303.5,134.5C 309.167,134.5 314.833,134.5 320.5,134.5C 320.169,112.993 320.503,91.6601 321.5,70.5 Z"/></g>
</svg>
